<?xml version="1.0" standalone="no"?><!DOCTYPE svg PUBLIC "-//W3C//DTD SVG 1.1//EN" "http://www.w3.org/Graphics/SVG/1.1/DTD/svg11.dtd"><svg class="icon" width="64px" height="64.00px" viewBox="0 0 1024 1024" version="1.1" xmlns="http://www.w3.org/2000/svg"><path d="M512 1024C228.894118 1024 0 795.105882 0 512S228.894118 0 512 0s512 228.894118 512 512-228.894118 512-512 512z m0-963.764706C262.023529 60.235294 60.235294 262.023529 60.235294 512s201.788235 451.764706 451.764706 451.764706 451.764706-201.788235 451.764706-451.764706S761.976471 60.235294 512 60.235294z" fill="#5bd660" /><path d="M454.776471 692.705882c-9.035294 0-15.058824-3.011765-21.082353-9.035294l-153.6-162.635294c-12.047059-12.047059-12.047059-30.117647 0-42.164706s30.117647-12.047059 42.164706 0l132.517647 138.541177 277.082353-280.094118c12.047059-12.047059 30.117647-12.047059 42.164705 0 12.047059 12.047059 12.047059 30.117647 0 42.164706l-298.164705 301.176471c-6.023529 9.035294-12.047059 12.047059-21.082353 12.047058z" fill="#5bd660" /></svg>