<?xml version="1.0" standalone="no"?><!DOCTYPE svg PUBLIC "-//W3C//DTD SVG 1.1//EN" "http://www.w3.org/Graphics/SVG/1.1/DTD/svg11.dtd"><svg class="icon" width="64px" height="64.00px" viewBox="0 0 1024 1024" version="1.1" xmlns="http://www.w3.org/2000/svg"><path d="M360.96 901.12H91.648c-33.792 0-61.44-27.648-61.44-61.44V177.664c0-33.792 27.648-61.44 61.44-61.44h269.824c33.792 0 61.44 27.648 61.44 61.44V839.68c0 34.304-27.648 61.44-61.952 61.44zM662.528 901.12h-10.24c-33.792 0-61.44-27.648-61.44-61.44v-22.016L983.552 481.28v144.896L662.528 901.12zM755.2 901.12l228.352-195.584V839.68c0 33.792-27.648 61.44-61.44 61.44h-166.912zM590.848 738.304v-144.896l392.704-336.384v144.896l-392.704 336.384zM590.848 514.048V384l312.832-267.776h18.432c33.792 0 61.44 27.648 61.44 61.44l-392.704 336.384zM590.848 304.64V177.664c0-33.792 27.648-61.44 61.44-61.44h158.72l-220.16 188.416zM506.88 59.904c15.36 0 28.16 12.8 28.16 28.16v841.216c0 15.36-12.8 28.16-28.16 28.16s-28.16-12.8-28.16-28.16V88.064c0-15.36 12.8-28.16 28.16-28.16z" fill="#2E5795" /></svg>