<?xml version="1.0" standalone="no"?><!DOCTYPE svg PUBLIC "-//W3C//DTD SVG 1.1//EN" "http://www.w3.org/Graphics/SVG/1.1/DTD/svg11.dtd"><svg class="icon" width="64px" height="58.78px" viewBox="0 0 1115 1024" version="1.1" xmlns="http://www.w3.org/2000/svg"><path d="M947.785532 0H91.913056c-39.392986 0-71.277365 31.884378-71.277365 71.277365v570.545377c0 39.392986 31.884378 71.277365 71.277365 71.277364h378.368544l-21.764081 115.67609H270.160877c-19.696493 0-35.693092 15.996599-35.693092 35.693092v11.752604h570.545377v-11.752604c0-19.696493-15.996599-35.693092-35.693093-35.693092H591.181068l-21.76408-115.67609h378.368544c39.392986 0 71.277365-31.993199 71.277364-71.277364V71.277365c0-39.392986-31.884378-71.277365-71.277364-71.277365zM519.794883 676.754091c-11.426142 0-20.675877-9.249734-20.675876-20.675876s9.249734-20.675877 20.675876-20.675877 20.675877 9.249734 20.675877 20.675877-9.249734 20.675877-20.675877 20.675876z m435.608077-73.562593h-871.107333V60.395324h871.107333v542.796174z" fill="#2E5895" /><path d="M580.407848 183.14474C602.933672 156.810202 600.866084 117.961318 600.866084 117.961318s-38.522423 3.591073-61.048246 29.925611c-22.525824 26.225717-20.458236 65.183422-20.458236 65.183422s38.522423-3.591073 61.048246-29.925611m48.860362 151.586822c0-33.190223 18.281828-62.02763 45.269288-77.044846-18.82593-27.205101-52.016153-42.331137-74.977259-42.331137-27.640383 0-65.836344 19.587673-76.936025 19.587673-11.752604 0-36.454835-17.737726-69.209777-18.173008-27.096281-0.435282-72.69203 15.343677-88.688629 62.136451-15.887779 46.792774-15.234857 114.370244 18.173007 177.159617 26.769819 50.275027 50.383847 70.624442 73.236132 70.624443s49.839745-17.520085 71.386185-17.520085c21.43762 0 41.569394 17.520085 63.768757 17.520085 22.090542 0 45.051647-18.173007 61.592348-43.310521 16.649522-25.137513 31.884378-64.204038 31.884379-64.204038s0.10882-0.979384 0.326461-2.50287c-32.646121-12.731987-55.824867-44.616366-55.824867-81.941764m0 0" fill="#2E5895" /></svg>