<?xml version="1.0" standalone="no"?><!DOCTYPE svg PUBLIC "-//W3C//DTD SVG 1.1//EN" "http://www.w3.org/Graphics/SVG/1.1/DTD/svg11.dtd"><svg class="icon" width="64px" height="64.00px" viewBox="0 0 1024 1024" version="1.1" xmlns="http://www.w3.org/2000/svg"><path d="M609.104 311.712c-6.469-6.203-12.528-11.854-18.12-17.07-14.11-13.166-30.024-28.006-32.628-34.407 1.005-1.992 5.217-8.306 22.194-21.378 28.857-22.202 98.837-122.453 78.15-178.151-12.135-32.68-49.334-32.68-63.341-32.68-3.336 0-6.648 0.077-9.872 0.145-4.077 0.075-8.4 0.152-10.98 0.067-13.59-15.974-29.682-19.564-41.4-19.564-20 0-38.705 10.364-55.215 19.513-4.833 2.673-9.641 5.353-14.305 7.616-5.15 2.493-7.54 2.63-7.957 2.63-0.8 0-2.69-1.03-5.506-2.612-6.06-3.378-15.217-8.494-27.93-8.494-13.933 0-28.128 6.136-44.636 19.318-10.46 8.34-24.978 18.289-34.688 18.289-3.267 0-6.518-0.996-11.964-2.758-7.115-2.306-15.966-5.157-27.165-5.157-12.263 0-24.637 3.472-37.777 10.62-36.347 19.76-44.228 42.816-45.8 58.423-39.837 5.811-66.142 34.543-72.304 62.949-5.694 26.263 5.872 50.16 29.47 60.881 16 7.268 25.02 9.728 49.172 16.281 18.518 5.029 46.525 12.63 95.203 27.114 5.294 1.582 10.247 2.995 14.851 4.314 6.953 2 14.467 4.143 20.093 6.059-7.014 11.582-21.549 30.084-27.147 37.215-164.443 209.24-225.946 409.613-164.528 535.98 30.695 63.17 107.645 138.468 299.882 138.468 15.08 0 30.884-0.467 46.959-1.378 74.132-4.239 108.82-6.212 196.057-63.656 78.591-5.889 134.852-44.21 158.825-108.445 48.824-130.758-47.478-328.941-257.593-530.132zM336.24 244.338c-49.265-14.655-77.613-22.356-96.378-27.454-23.003-6.238-29.19-7.924-41.41-13.481-0.536-0.239-0.818-0.434-0.885-0.444-0.315-1.138-0.018-5.41 3.727-10.858 2.586-3.77 12.646-16.05 34.44-16.05h0.017l1.455 0.024 1.44-0.153c12.349-1.234 32.96-7.982 32.253-39.42-0.178-7.42-0.307-13.292 19.437-24.023 5.48-2.978 9.855-4.424 13.395-4.424 3.012 0 6.17 0.97 11.472 2.69 7.216 2.321 16.186 5.223 27.666 5.223 20.485 0 40.994-9.08 66.524-29.444 7.234-5.77 11.175-7.515 12.4-7.991 0.928 0.45 2.332 1.234 3.421 1.846 6.485 3.625 16.272 9.089 30.416 9.089 9.59 0 19.47-2.527 30.228-7.736 5.48-2.663 11.113-5.762 16.782-8.901 10.535-5.846 23.667-13.115 30.467-13.115 0.645 0 1.617 0 3.981 3.558 10.682 16.05 30.91 16.05 40.629 16.05 2.809 0 5.777-0.059 8.833-0.127 2.875-0.059 5.838-0.127 8.809-0.127 9.462 0 13.973 0.792 16.04 1.396 5.251 24.781-38.764 100.036-61.995 117.916-18.34 14.118-35.564 29.879-40.697 49.734-51.887 0.358-90.071 8.33-115.79 16.493-10.586-6.902-24.993-11.166-42.295-16.128a854.652 854.652 0 0 1-14.382-4.143z m482.63 579.646c-14.434 38.67-43.53 58.26-73.962 67.792 5.889-9.923 10.926-19.778 15.063-29.25 23.974-54.95 25.386-106.454 25.223-121.236l0.162-0.017-0.136-2.273h-0.069c-0.034-1.217-0.068-1.889-0.078-1.94 0 0 0.274-22.638-27.674-22.62-0.96 0-22.67 2.34-23.089 26.534h-0.118c0.28 7.914 4.765 193.998-187.412 219.426-11.301 1.022-23.633 1.745-37.87 2.562-15.105 0.868-29.93 1.293-44.05 1.293-133.133 0-218.575-36.917-253.96-109.738-51.895-106.743 8.945-291.482 158.733-482.12 17.904-22.789 31.096-40.201 37.486-55.588 26.22-7.396 66.32-15.531 117.34-16.493 8.254 9.762 19.053 19.872 31.69 31.65 5.447 5.089 11.345 10.586 17.634 16.62C803.296 568.352 850.868 738.26 818.87 823.983z" fill="#2E5795" /><path d="M623.715 668.349c-17.182-11.95-38.687-16.944-64.507-14.986-14.714 1.488-29.48 2.977-44.313 4.477-8.587 0.067-15.241-1.2-19.982-3.771-4.73-2.57-7.506-6.383-8.34-11.462-1.617-9.736 3.753-19.87 16.136-30.432 11.948-10.341 25.318-16.817 40.075-19.403 5.497-0.912 13.83-0.92 24.993-0.034 11.167 0.885 19.43 0.885 24.834-0.018 7.216-1.2 12.612-5.174 16.203-11.94 3.243-6.016 4.289-12.492 3.131-19.419-1.607-9.745-13.3-16.637-35.07-20.706-17.497-3.259-31.871-3.958-43.096-2.085-0.264 0.042-0.51 0.119-0.775 0.162-0.817-4.792-1.54-9.065-2.059-11.975-1.413-7.828-4.68-24.168-27.198-16.586-19.046 6.418-21.258 19.804-20.033 27.59 0.697 4.528 2.05 12.663 3.403 20.807-9.207 6.86-17.785 15.293-25.666 25.411-19.905 25.582-27.862 51.402-23.897 77.469 3.09 20.74 16.162 34.875 39.215 42.415 17.046 5.524 35.538 6.91 55.469 4.145 25.675-3.582 43.07-4.136 52.184-1.676 12.81 3.353 20.621 13.42 23.413 30.237 2.033 12.254-5.668 25.12-23.097 38.576-16.808 13.064-35.054 21.242-54.78 24.519-23.046 3.82-39.18-1.924-48.448-17.242-6.86-11.463-15.43-16.34-25.744-14.63-7.685 1.277-13.25 5.047-16.68 11.294-3.43 6.265-4.46 13.59-3.063 21.99 2.724 16.408 12.186 29.7 28.364 39.896 19.012 12.144 42.857 15.888 71.52 11.31 0.86 5.124 1.634 9.676 2.178 12.732 1.421 7.838 4.68 24.177 27.207 16.586 19.046-6.416 21.25-19.811 20.033-27.59-0.536-3.388-1.412-8.8-2.391-14.715 14.083-5.804 26.968-13.123 38.678-21.982 30.74-23.335 43.267-52.21 37.556-86.616-4.697-28.273-16.518-49.046-35.453-62.348z" fill="#2E5795" /></svg>