<?xml version="1.0" standalone="no"?><!DOCTYPE svg PUBLIC "-//W3C//DTD SVG 1.1//EN" "http://www.w3.org/Graphics/SVG/1.1/DTD/svg11.dtd"><svg class="icon" width="64px" height="64.00px" viewBox="0 0 1024 1024" version="1.1" xmlns="http://www.w3.org/2000/svg"><path d="M383.058302 31.374568C117.333312 102.546537-40.427758 375.380436 30.940686 640.827087c12.359492 46.479591 31.386848 89.454358 55.130622 128.667452 8.240685 14.163581 23.38664 23.723308 40.95476 23.723307 26.178219 0 47.379077-21.180392 47.379077-47.329958 0-8.224312-2.305509-15.84692-5.939269-22.511713l0.846274-0.485047c-19.99438-32.432667-35.742039-68.14503-46.164412-106.757443-57.552787-214.489072 69.920466-435.027931 284.628526-492.522389 214.712153-57.378825 435.480232 69.841671 493.037113 284.325627 57.552787 214.612892-69.916373 435.032024-284.624433 492.523413-111.476931 29.90203-224.404909 9.567913-315.76671-46.595225l-0.240477 0.601704c-6.668886-3.628644-14.179954-5.92699-22.420639-5.926989-26.174126 0-47.379077 21.184485-47.379077 47.325865 0 17.551748 9.69685 32.68133 23.871687 40.909735l-0.240477 0.485047c112.081705 67.908646 250.338558 91.996251 386.897747 55.437614 265.716804-71.172993 423.366334-344.001775 352.238367-609.453543C921.899624 117.79687 648.783293-39.798425 383.058302 31.374568zM591.745229 538.180266c23.747867-15.610536 90.147136-47.201022 90.147136-130.36S612.104929 267.533173 553.572838 255.426437c-58.647725-12.101619-122.139781-4.118807-167.0926 45.148269-40.345893 44.057425-48.835242 79.040171-48.835241 156.147316h90.395799v-17.917068c0-41.033555 4.727675-84.369549 63.49615-96.230691 31.988552-6.412037 62.035892 3.51301 79.973426 21.064758 20.475334 19.84907 20.596084 64.75277-11.873422 87.147826l-51.14075 34.622541c-29.683043 19.002796-39.984666 40.183188-39.984667 71.41347v104.335277h90.511433v-70.442352c0-19.003819 8.970302-36.920888 32.722263-52.535517z m-77.916581 158.445662c-25.689079 0-46.645366 20.824281-46.645366 46.47959 0 25.663496 20.836561 46.487777 46.645366 46.487778 25.689079 0 46.533826-20.824281 46.533826-46.487778 0-25.65531-20.844747-46.479591-46.533826-46.47959z" fill="#2E5795" /></svg>