<?xml version="1.0" standalone="no"?><!DOCTYPE svg PUBLIC "-//W3C//DTD SVG 1.1//EN" "http://www.w3.org/Graphics/SVG/1.1/DTD/svg11.dtd"><svg class="icon" width="64px" height="64.00px" viewBox="0 0 1024 1024" version="1.1" xmlns="http://www.w3.org/2000/svg"><path d="M880.5 111h-737c-35.4 0-64 28.7-64 64v517c0 35.3 28.7 64 64 64H480v93h-96.1c-17.7 0-32 14.3-32 32s14.3 32 32 32H640c17.7 0 32-14.3 32-32s-14.3-32-32-32h-96v-93h336.4c35.4 0 64-28.7 64-64V175c0.1-35.3-28.6-64-63.9-64z m0 581h-737V175h736.9v517z" fill="#2E5795" /><path d="M219.2 401.2c8.2 0 16.4-3.1 22.6-9.4l134.4-134.4c12.5-12.5 12.5-32.8 0-45.3s-32.8-12.5-45.3 0L196.6 346.6c-12.5 12.5-12.5 32.8 0 45.3 6.2 6.2 14.4 9.3 22.6 9.3zM218.5 505.7c6.3 6.2 14.4 9.4 22.6 9.4 8.2 0 16.4-3.1 22.6-9.4l226.4-226.3c12.5-12.5 12.5-32.8 0-45.3s-32.8-12.5-45.3 0L218.5 460.5c-12.5 12.4-12.5 32.7 0 45.2z" fill="#2E5795" /></svg>