<?xml version="1.0" standalone="no"?><!DOCTYPE svg PUBLIC "-//W3C//DTD SVG 1.1//EN" "http://www.w3.org/Graphics/SVG/1.1/DTD/svg11.dtd"><svg class="icon" width="64px" height="63.94px" viewBox="0 0 1025 1024" version="1.1" xmlns="http://www.w3.org/2000/svg"><path d="M828.22022 471.511512c-17.425425 0-31.775776-14.35035-31.775776-31.775776V135.815816c0-4.612613-3.587588-8.2002-8.2002-8.2002H138.890891c-4.612613 0-8.2002 3.587588-8.2002 8.2002v751.343343c0 4.612613 3.587588 8.2002 8.2002 8.2002h288.544544c17.425425 0 31.775776 14.35035 31.775776 31.775776s-14.35035 31.775776-31.775776 31.775776H98.914915c-17.425425 0-31.775776-14.35035-31.775776-31.775776V95.83984c0-17.425425 14.35035-31.775776 31.775776-31.775776h729.305305c17.425425 0 31.775776 14.35035 31.775776 31.775776v343.895896c0 17.425425-14.35035 31.775776-31.775776 31.775776z" fill="#2E5795" /><path d="M213.717718 301.86987h470.486486c17.425425 0 31.775776 14.35035 31.775776 31.775776 0 17.425425-14.35035 31.775776-31.775776 31.775775H213.717718c-17.425425 0-31.775776-14.35035-31.775776-31.775775 0-17.425425 14.35035-31.775776 31.775776-31.775776zM218.842843 507.387387H430.510511c17.425425 0 31.775776 14.35035 31.775775 31.775776s-14.35035 31.775776-31.775775 31.775776H218.842843c-17.425425 0-31.775776-14.35035-31.775776-31.775776s13.837838-31.775776 31.775776-31.775776zM953.273273 867.683684l-160.416416-320.832833c-6.15015-12.3003-16.4004-22.550551-28.700701-28.700701-31.775776-15.887888-70.214214-3.075075-85.589589 28.700701l-160.416417 320.832833c-4.612613 8.712713-6.662663 18.45045-6.662663 28.7007 0 35.363363 28.700701 64.064064 64.064065 64.064064h320.832832c9.737738 0 19.475475-2.562563 28.700701-6.662662 31.263263-16.4004 44.076076-54.838839 28.188188-86.102102z m-69.701701 28.188188h-294.694695c-1.025025 0-2.562563-0.512513-3.587588-1.025025-4.1001-2.05005-5.637638-6.662663-3.587587-10.762763l147.603603-294.694695c1.025025-1.537538 2.05005-2.562563 3.587588-3.587587 4.1001-2.05005 8.712713-0.512513 10.762763 3.587587l147.603603 294.694695c0.512513 1.025025 1.025025 2.562563 1.025025 3.587588-0.512513 4.612613-4.1001 8.2002-8.712712 8.2002z" fill="#2E5795" /><path d="M735.455455 650.378378c17.425425 0 31.775776 14.35035 31.775776 31.775776v86.102102c0 17.425425-14.35035 31.775776-31.775776 31.775776s-31.775776-14.35035-31.775775-31.775776v-86.102102c-0.512513-17.425425 13.837838-31.775776 31.775775-31.775776zM735.455455 879.983984c-17.425425 0-31.775776-14.35035-31.775775-31.775776s14.35035-31.775776 31.775775-31.775776 31.775776 14.35035 31.775776 31.775776-14.35035 31.775776-31.775776 31.775776z" fill="#2E5795" /></svg>