<?xml version="1.0" standalone="no"?><!DOCTYPE svg PUBLIC "-//W3C//DTD SVG 1.1//EN" "http://www.w3.org/Graphics/SVG/1.1/DTD/svg11.dtd"><svg class="icon" width="64px" height="64.00px" viewBox="0 0 1024 1024" version="1.1" xmlns="http://www.w3.org/2000/svg"><path d="M978.432 453.632l-384-384C558.592 33.792 493.568 6.656 442.88 6.656L129.536 5.12C59.904 4.608 3.072 61.952 3.584 131.072L5.12 444.416c0 51.2 27.136 115.712 63.488 151.552l384 384c49.152 49.152 129.024 49.152 178.176 0l348.672-348.672c48.64-48.64 48.128-128.512-1.024-177.664zM319.488 448c-70.144 0-126.464-56.832-126.464-126.464s56.832-126.464 126.464-126.464 126.464 56.832 126.464 126.464S389.632 448 319.488 448z" fill="#ffffff" /></svg>