<?xml version="1.0" standalone="no"?><!DOCTYPE svg PUBLIC "-//W3C//DTD SVG 1.1//EN" "http://www.w3.org/Graphics/SVG/1.1/DTD/svg11.dtd"><svg class="icon" width="64px" height="47.56px" viewBox="0 0 1378 1024" version="1.1" xmlns="http://www.w3.org/2000/svg"><path d="M723.727 429.606c-14.507 4.551-30.151-1.327-38.21-14.412L485.551 90.454l-199.965 324.74c-8.059 13.085-23.703 18.963-38.21 14.412L0.005 351.763l130.655 437.38c4.267 14.318 17.256 24.084 31.953 24.084h645.783c14.697 0 27.686-9.766 31.953-24.083l130.75-437.381-247.372 77.843zM485.552 668.634c-47.408 0-85.808-38.78-85.808-86.66s38.4-86.661 85.808-86.661 85.807 38.779 85.807 86.66-38.4 86.661-85.807 86.661zM770.376 871.16H200.823c-31.858 0-57.742 25.884-57.742 57.742 0 31.858 25.884 57.742 57.742 57.742h569.458c31.858 0 57.742-25.884 57.742-57.742 0.095-31.953-25.79-57.742-57.647-57.742z" fill="#FF7405" /><path d="M723.727 429.606c-14.507 4.551-30.151-1.327-38.21-14.412L485.551 90.454l-199.965 324.74c-8.059 13.085-23.703 18.963-38.21 14.412L0.005 351.763l130.655 437.38c4.267 14.318 17.256 24.084 31.953 24.084h645.783c14.697 0 27.686-9.766 31.953-24.083l130.75-437.381-247.372 77.843zM485.552 668.634c-47.408 0-85.808-38.78-85.808-86.66s38.4-86.661 85.808-86.661 85.807 38.779 85.807 86.66-38.4 86.661-85.807 86.661z" fill="#FF7405" /></svg>