<svg id="图层_1" data-name="图层 1" xmlns="http://www.w3.org/2000/svg" viewBox="0 0 220 80.41"><defs><style>.cls-1{fill:#1e70f4;}.cls-2{fill:#ff8327;}.cls-3{font-size:19.2px;font-family:Futura-Medium, Futura;font-weight:500;letter-spacing:0.05em;}.cls-3,.cls-5{fill:#21233d;}.cls-4{letter-spacing:0.07em;}.cls-5{font-size:59.92px;font-family:Futura-Bold, Futura;font-weight:700;}.cls-6{letter-spacing:0.01em;}</style></defs><title>未标题-1</title><path class="cls-1" d="M33.73,36.93h9.46a10.81,10.81,0,0,0-9.46-9.47ZM45.66,40l.66-.56h-.58C45.72,39.67,45.69,39.85,45.66,40Z" transform="translate(0 -1.29)"/><path class="cls-1" d="M33.73,17.28v7.64a13.33,13.33,0,0,1,12,12h4.42a20.57,20.57,0,0,1,3.1-1.31A20.9,20.9,0,0,0,33.73,17.28Z" transform="translate(0 -1.29)"/><path class="cls-1" d="M38.91,60.84A23.54,23.54,0,1,1,55.77,34.93a21.88,21.88,0,0,1,4.42-.45,21.61,21.61,0,0,1,4.72.52V12.83L32.45,1.29,0,12.83V46.4c0,20,32.45,31.26,32.45,31.26A82.48,82.48,0,0,0,45,71.8,21.73,21.73,0,0,1,38.91,60.84Z" transform="translate(0 -1.29)"/><path class="cls-1" d="M33.73,48.94a10.8,10.8,0,0,0,9.46-9.46H33.73ZM31.18,17.28A20.88,20.88,0,0,0,11.53,36.93h7.64a13.26,13.26,0,0,1,12-12Z" transform="translate(0 -1.29)"/><path class="cls-1" d="M31.18,27.46a10.81,10.81,0,0,0-9.46,9.47h9.46Zm2.55,31.66a20.54,20.54,0,0,0,4.79-.82c-.06-.67-.1-1.36-.1-2a21.61,21.61,0,0,1,1-6.67,13.29,13.29,0,0,1-5.74,1.91v7.63ZM31.18,39.48H21.72a10.8,10.8,0,0,0,9.46,9.46Z" transform="translate(0 -1.29)"/><path class="cls-2" d="M60.19,72.51A16.27,16.27,0,1,1,76.45,56.25,16.26,16.26,0,0,1,60.19,72.51Zm0-29.27a13,13,0,1,0,13,13A13,13,0,0,0,60.19,43.24Z" transform="translate(0 -1.29)"/><path class="cls-2" d="M57.74,63.9h0a1.61,1.61,0,0,1-1.14-.47l-5.66-5.66a1.62,1.62,0,0,1,0-2.27,1.6,1.6,0,0,1,2.27,0L57.74,60l10-10A1.61,1.61,0,1,1,70,52.33l-11.1,11.1A1.61,1.61,0,0,1,57.74,63.9Z" transform="translate(0 -1.29)"/><text class="cls-3" transform="translate(90.73 74.87) scale(1.55 1)">Antivi<tspan class="cls-4" x="54.97" y="0">r</tspan><tspan x="63.4" y="0">us</tspan></text><text class="cls-5" transform="translate(85.63 55.42)">Be<tspan class="cls-6" x="80.23" y="0">s</tspan><tspan x="111.56" y="0">t</tspan></text></svg>