<?xml version="1.0" encoding="utf-8"?>
<!-- Generator: Adobe Illustrator 24.0.1, SVG Export Plug-In . SVG Version: 6.00 Build 0)  -->
<svg version="1.1" id="图层_1" xmlns="http://www.w3.org/2000/svg" xmlns:xlink="http://www.w3.org/1999/xlink" x="0px" y="0px"
	 viewBox="0 0 64 63.9" style="enable-background:new 0 0 64 63.9;" xml:space="preserve">
<style type="text/css">
	.st0{fill:#FEBE2D;}
	.st1{fill:#FFFFFF;}
</style>
<path class="st0" d="M48.6,62.6c-0.8,0-1.5-0.2-2.4-0.6l-12.9-6.8C33,55,32.6,54.9,32,54.9c-0.4,0-1,0.1-1.3,0.3L17.9,62
	c-0.8,0.4-1.5,0.6-2.4,0.6c-1.5,0-3-0.7-4-1.9c-1-1.2-1.4-2.7-1.2-4.2l2.5-14.3c0.1-0.9-0.2-1.8-0.8-2.4l-10.4-10
	c-1.5-1.4-2-3.5-1.3-5.4c0.6-1.9,2.2-3.3,4.2-3.6l14.3-2.1c0.9-0.1,1.7-0.7,2.1-1.5l6.4-13C28.2,2.4,30,1.3,32,1.3s3.8,1.1,4.7,2.9
	l6.4,13c0.4,0.8,1.2,1.3,2.1,1.5l14.3,2.1c2,0.3,3.6,1.7,4.2,3.5c0.6,1.9,0.1,4-1.3,5.4L52.1,39.8c-0.7,0.6-1,1.5-0.8,2.4l2.4,14.3
	c0.3,1.5-0.1,3.1-1.2,4.2C51.6,61.9,50.1,62.6,48.6,62.6z"/>
<rect x="32" class="st1" width="32" height="63.9"/>
</svg>
