<?xml version="1.0" standalone="no"?><!DOCTYPE svg PUBLIC "-//W3C//DTD SVG 1.1//EN" "http://www.w3.org/Graphics/SVG/1.1/DTD/svg11.dtd"><svg class="icon" width="64px" height="64.00px" viewBox="0 0 1024 1024" version="1.1" xmlns="http://www.w3.org/2000/svg"><path d="M998.1 743.1v229.8c0 28.2-22.9 51.1-51.1 51.1H78.7c-28.2 0-51.1-22.9-51.1-51.1V743.1c0-14.1 11.4-25.5 25.5-25.5h51.1c14.1 0 25.5 11.4 25.5 25.5v178.8h766.1V743.1c0-14.1 11.4-25.5 25.5-25.5h51.1c14.2-0.1 25.7 11.4 25.7 25.5zM563.9 617.2l226-226c10-10 26.1-10 36.1 0l36.1 36.1c10 10 10 26.1 0 36.1l-325 325c-10 10-26.1 10-36.1 0l-325-325c-10-10-10-26.1 0-36.1l36.1-36.1c10-10 26.1-10 36.1 0l213.6 213.6V28c0-14.1 11.4-25.5 25.5-25.5h51.1c14.1 0 25.5 11.4 25.5 25.5v589.2z" fill="#ffffff" /></svg>